<svg width="28" height="29" viewBox="0 0 28 29" fill="none" xmlns="http://www.w3.org/2000/svg">
<g filter="url(#filter0_d_335_936)">
<path d="M14 5C13 5 10.5 11 10.5 11C10.5 11 5 12 5 13C5 14 8.5 17.5 8.5 17.5C8.5 17.5 7.5 23 8.5 24C9.5 25 14 21.5 14 21.5C14 21.5 18.5 24.5 19.5 24C20.5 23.5 19.5 17.5 19.5 17.5C19.5 17.5 23.5 14 23 13C22.5 12 17.5 11 17.5 11C17.5 11 15 5 14 5Z" fill="#FD4E51"/>
</g>
<defs>
<filter id="filter0_d_335_936" x="0.4" y="0.4" width="27.2432" height="28.3797" filterUnits="userSpaceOnUse" color-interpolation-filters="sRGB">
<feFlood flood-opacity="0" result="BackgroundImageFix"/>
<feColorMatrix in="SourceAlpha" type="matrix" values="0 0 0 0 0 0 0 0 0 0 0 0 0 0 0 0 0 0 127 0" result="hardAlpha"/>
<feOffset/>
<feGaussianBlur stdDeviation="2.3"/>
<feComposite in2="hardAlpha" operator="out"/>
<feColorMatrix type="matrix" values="0 0 0 0 0.803241 0 0 0 0 0.00339411 0 0 0 0 0.0167249 0 0 0 0.53 0"/>
<feBlend mode="normal" in2="BackgroundImageFix" result="effect1_dropShadow_335_936"/>
<feBlend mode="normal" in="SourceGraphic" in2="effect1_dropShadow_335_936" result="shape"/>
</filter>
</defs>
</svg>
