<svg width="28" height="30" viewBox="0 0 28 30" fill="none" xmlns="http://www.w3.org/2000/svg">
<g filter="url(#filter0_d_27_516)">
<path d="M14 5.5C13 5.5 10.5 11.5 10.5 11.5C10.5 11.5 5 12.5 5 13.5C5 14.5 8.5 18 8.5 18C8.5 18 7.5 23.5 8.5 24.5C9.5 25.5 14 22 14 22C14 22 18.5 25 19.5 24.5C20.5 24 19.5 18 19.5 18C19.5 18 23.5 14.5 23 13.5C22.5 12.5 17.5 11.5 17.5 11.5C17.5 11.5 15 5.5 14 5.5Z" fill="#FDEB4E"/>
</g>
<defs>
<filter id="filter0_d_27_516" x="0.4" y="0.9" width="27.2432" height="28.3797" filterUnits="userSpaceOnUse" color-interpolation-filters="sRGB">
<feFlood flood-opacity="0" result="BackgroundImageFix"/>
<feColorMatrix in="SourceAlpha" type="matrix" values="0 0 0 0 0 0 0 0 0 0 0 0 0 0 0 0 0 0 127 0" result="hardAlpha"/>
<feOffset/>
<feGaussianBlur stdDeviation="2.3"/>
<feComposite in2="hardAlpha" operator="out"/>
<feColorMatrix type="matrix" values="0 0 0 0 0.803241 0 0 0 0 0.523295 0 0 0 0 0.00339411 0 0 0 1 0"/>
<feBlend mode="normal" in2="BackgroundImageFix" result="effect1_dropShadow_27_516"/>
<feBlend mode="normal" in="SourceGraphic" in2="effect1_dropShadow_27_516" result="shape"/>
</filter>
</defs>
</svg>
